<?xml version="1.0" standalone="no"?><svg xmlns="http://www.w3.org/2000/svg" viewBox="0 0 1440 320"><path fill="#e81e63" fill-opacity="1" d="M0,96L30,122.7C60,149,120,203,180,202.7C240,203,300,149,360,149.3C420,149,480,203,540,213.3C600,224,660,192,720,192C780,192,840,224,900,245.3C960,267,1020,277,1080,266.7C1140,256,1200,224,1260,197.3C1320,171,1380,149,1410,138.7L1440,128L1440,320L1410,320C1380,320,1320,320,1260,320C1200,320,1140,320,1080,320C1020,320,960,320,900,320C840,320,780,320,720,320C660,320,600,320,540,320C480,320,420,320,360,320C300,320,240,320,180,320C120,320,60,320,30,320L0,320Z"></path></svg>